<svg xmlns="http://www.w3.org/2000/svg" width="805" height="600"><rect width="805" height="600" x="0" y="0" fill="#FFFFFF" id="backgorund"/><g id="viz"><clipPath id="serieClipPath"><rect x="-50" y="-10" width="805" height="600"/></clipPath><g transform="translate(0,0)"><g transform="translate(50,10)" clip-path="url(#serieClipPath)"><g id="axis"><g transform="translate(0,570)" fill="none" font-size="10" font-family="sans-serif" text-anchor="middle"><path class="domain" stroke="currentColor" d="M0,6V0H740V6"/><g class="tick" opacity="1" transform="translate(0,0)"><line stroke="currentColor" y2="6"/><text fill="currentColor" y="9" dy="0.71em">March</text></g><g class="tick" opacity="1" transform="translate(52.857142857142854,0)"><line stroke="currentColor" y2="6"/><text fill="currentColor" y="9" dy="0.71em">Thu 03</text></g><g class="tick" opacity="1" transform="translate(105.71428571428571,0)"><line stroke="currentColor" y2="6"/><text fill="currentColor" y="9" dy="0.71em">Sat 05</text></g><g class="tick" opacity="1" transform="translate(158.57142857142856,0)"><line stroke="currentColor" y2="6"/><text fill="currentColor" y="9" dy="0.71em">Mon 07</text></g><g class="tick" opacity="1" transform="translate(211.42857142857142,0)"><line stroke="currentColor" y2="6"/><text fill="currentColor" y="9" dy="0.71em">Wed 09</text></g><g class="tick" opacity="1" transform="translate(264.2857142857143,0)"><line stroke="currentColor" y2="6"/><text fill="currentColor" y="9" dy="0.71em">Fri 11</text></g><g class="tick" opacity="1" transform="translate(317.1428571428571,0)"><line stroke="currentColor" y2="6"/><text fill="currentColor" y="9" dy="0.71em">Mar 13</text></g><g class="tick" opacity="1" transform="translate(370,0)"><line stroke="currentColor" y2="6"/><text fill="currentColor" y="9" dy="0.71em">Tue 15</text></g><g class="tick" opacity="1" transform="translate(422.85714285714283,0)"><line stroke="currentColor" y2="6"/><text fill="currentColor" y="9" dy="0.71em">Thu 17</text></g><g class="tick" opacity="1" transform="translate(475.7142857142857,0)"><line stroke="currentColor" y2="6"/><text fill="currentColor" y="9" dy="0.71em">Sat 19</text></g><g class="tick" opacity="1" transform="translate(528.5714285714286,0)"><line stroke="currentColor" y2="6"/><text fill="currentColor" y="9" dy="0.71em">Mon 21</text></g><g class="tick" opacity="1" transform="translate(581.4285714285714,0)"><line stroke="currentColor" y2="6"/><text fill="currentColor" y="9" dy="0.71em">Wed 23</text></g><g class="tick" opacity="1" transform="translate(634.2857142857142,0)"><line stroke="currentColor" y2="6"/><text fill="currentColor" y="9" dy="0.71em">Fri 25</text></g><g class="tick" opacity="1" transform="translate(687.1428571428571,0)"><line stroke="currentColor" y2="6"/><text fill="currentColor" y="9" dy="0.71em">Mar 27</text></g><g class="tick" opacity="1" transform="translate(740,0)"><line stroke="currentColor" y2="6"/><text fill="currentColor" y="9" dy="0.71em">Tue 29</text></g><text x="740" dy="-5" text-anchor="end" style="font-family: Arial, sans-serif; font-size: 12px; fill: rgb(123, 123, 123); font-weight: bold;">日期</text></g><g transform="translate(0,0)" fill="none" font-size="10" font-family="sans-serif" text-anchor="end"><path class="domain" stroke="currentColor" d="M0,570V0"/><g class="tick" opacity="1" transform="translate(0,570)"><line stroke="currentColor" x2="-6"/><text fill="currentColor" x="-9" dy="0.32em">505</text></g><g class="tick" opacity="1" transform="translate(0,488.5714285714286)"><line stroke="currentColor" x2="-6"/><text fill="currentColor" x="-9" dy="0.32em">510</text></g><g class="tick" opacity="1" transform="translate(0,407.14285714285717)"><line stroke="currentColor" x2="-6"/><text fill="currentColor" x="-9" dy="0.32em">515</text></g><g class="tick" opacity="1" transform="translate(0,325.7142857142857)"><line stroke="currentColor" x2="-6"/><text fill="currentColor" x="-9" dy="0.32em">520</text></g><g class="tick" opacity="1" transform="translate(0,244.2857142857143)"><line stroke="currentColor" x2="-6"/><text fill="currentColor" x="-9" dy="0.32em">525</text></g><g class="tick" opacity="1" transform="translate(0,162.85714285714286)"><line stroke="currentColor" x2="-6"/><text fill="currentColor" x="-9" dy="0.32em">530</text></g><g class="tick" opacity="1" transform="translate(0,81.42857142857146)"><line stroke="currentColor" x2="-6"/><text fill="currentColor" x="-9" dy="0.32em">535</text></g><g class="tick" opacity="1" transform="translate(0,0)"><line stroke="currentColor" x2="-6"/><text fill="currentColor" x="-9" dy="0.32em">540</text></g><text x="4" text-anchor="start" dominant-baseline="hanging" style="font-family: Arial, sans-serif; font-size: 12px; fill: rgb(123, 123, 123); font-weight: bold;">收盤價</text></g></g><g id="viz"><g><path d="M26.428571428571427,342C39.64285714285714,342,39.64285714285714,390.85714285714283,52.857142857142854,390.85714285714283C92.5,390.85714285714283,92.5,309.42857142857144,132.14285714285714,309.42857142857144C145.35714285714283,309.42857142857144,145.35714285714283,260.5714285714286,158.57142857142856,260.5714285714286C171.78571428571428,260.5714285714286,171.78571428571428,309.42857142857144,185,309.42857142857144C198.21428571428572,309.42857142857144,198.21428571428572,293.1428571428571,211.42857142857142,293.1428571428571C224.64285714285714,293.1428571428571,224.64285714285714,439.7142857142857,237.85714285714286,439.7142857142857C277.5,439.7142857142857,277.5,390.85714285714283,317.1428571428571,390.85714285714283C330.35714285714283,390.85714285714283,330.35714285714283,488.5714285714286,343.57142857142856,488.5714285714286C356.7857142857143,488.5714285714286,356.7857142857143,472.2857142857143,370,472.2857142857143C383.2142857142857,472.2857142857143,383.2142857142857,570,396.42857142857144,570C409.6428571428571,570,409.6428571428571,358.2857142857143,422.85714285714283,358.2857142857143C462.5,358.2857142857143,462.5,456,502.14285714285717,456C515.3571428571429,456,515.3571428571429,374.57142857142856,528.5714285714286,374.57142857142856C541.7857142857142,374.57142857142856,541.7857142857142,113.99999999999997,555,113.99999999999997C568.2142857142858,113.99999999999997,568.2142857142858,32.571428571428584,581.4285714285714,32.571428571428584C594.6428571428571,32.571428571428584,594.6428571428571,16.285714285714292,607.8571428571429,16.285714285714292C647.5,16.285714285714292,647.5,146.57142857142856,687.1428571428571,146.57142857142856C700.3571428571429,146.57142857142856,700.3571428571429,244.2857142857143,713.5714285714286,244.2857142857143C726.7857142857142,244.2857142857143,726.7857142857142,162.85714285714286,740,162.85714285714286" stroke="#1f77b4" fill="none"/><text font-family="sans-serif" font-size="10" class="labels" x="607.8571428571429" y="16.285714285714292" dx="0" dy="-4" text-anchor="middle"/></g></g></g><text y="4" x="4" style="font-family: Arial, sans-serif; font-size: 12px; fill: black; font-weight: bold; dominant-baseline: hanging;"/></g><g id="grid"><rect x="0" y="0" width="805" height="600" fill="none" stroke="#ccc"/></g></g></svg>